<?xml version="1.0" encoding="UTF-8"?>
<svg width="244px" height="152px" viewBox="0 0 244 152" version="1.1" xmlns="http://www.w3.org/2000/svg" xmlns:xlink="http://www.w3.org/1999/xlink">
    <!-- Generator: Sketch 47.1 (45422) - http://www.bohemiancoding.com/sketch -->
    <title>Group 8</title>
    <desc>Created with Sketch.</desc>
    <defs></defs>
    <g id="pruebas" stroke="none" stroke-width="1" fill="none" fill-rule="evenodd">
        <g id="Desktop-HD" transform="translate(-4126.000000, -1092.000000)">
            <g id="Group-8" transform="translate(4126.000000, 1093.000000)">
                <text id="LAVESTIA" font-family="MOAM91" font-size="48" font-weight="bold" letter-spacing="4" fill="#000000">
                    <tspan x="0" y="99">LAVESTIA</tspan>
                </text>
                <text id="LAVESTIA-Copy" font-family="MOAM-Thin, MOAM91" font-size="48" font-style="condensed" font-weight="300" letter-spacing="4" fill="#000000">
                    <tspan x="0" y="150">LAVESTIA</tspan>
                </text>
                <g id="Group-7" transform="translate(1.000000, 0.000000)" stroke="#000000">
                    <path d="M1.45780658,15.8053365 C1.45780658,22.6974315 1.16021074,43.3672885 1.45780658,36.4816215 L2.99460931,43.4585831 C3.40311765,34.0066621 3.4829624,24.4794891 2.38264894,15.0829472 C1.53087676,7.80891731 1.45129983,29.7730673 2.24461277,37.0537047 C6.27342501,74.0281695 1.12038483,4.06919434 4.29214933,18.3973491 C5.52147837,23.9507301 9.74215375,34.0992428 4.29214933,37.1825385 C-3.21890325,41.4318553 11.0346892,-31.1442765 3.20012983,45.0137907 C3.03441652,46.6246542 -0.485968468,21.715678 1.12038483,43.5644109 C1.23945401,45.1839244 0.748287589,37.2760604 1.51302105,38.7086051 C2.91652106,41.3377256 0.669843053,45.9338539 3.21393345,47.4861719 C7.22757981,49.9351632 19.6673467,52.3960095 17.2936231,48.337395 C14.6924813,43.8899386 5.44767166,49.4676838 2.08817177,45.5613342 C-0.646012535,42.3820872 10.4725255,45.1900906 14.6648009,45.2806606 C17.1324101,45.3339709 8.07302021,43.3391674 7.2706632,45.6732968 C6.50469954,47.9015547 16.5760824,45.6640237 14.310508,46.3113307 C11.307467,47.1693424 2.27437105,47.9649636 4.94091934,46.3389379 C8.33088128,44.2717842 16.5578346,48.7861397 16.755282,44.82054 C16.9497716,40.9143463 8.95554897,44.2121363 5.06821937,43.7822013 C2.28993153,43.4749252 13.6967556,41.6702547 13.4270765,44.4524436 C13.1551526,47.2577922 7.35975267,43.2273967 4.97619526,44.7315834 C3.44138316,45.7001541 11.2359798,45.1229454 10.1096072,46.5459922 C9.46154964,47.3647409 -13.6224984,46.5394156 13.5881187,47.1840261" id="Path-4"></path>
                    <path d="M30.4362005,44.5782099 C31.3053171,43.0572557 33.7112322,38.3958209 33.0435504,40.0153475 L33.5680879,32.8251966 C31.3295215,38.255055 25.0370919,45.499294 28.9929556,49.8404555 C32.3315812,53.5042604 37.9821006,43.9323135 39.3472023,39.1671919 C42.9537986,26.5777485 1.58346897,79.476099 38.7643829,30.1749021 C39.3759394,29.3639896 39.1180009,32.2432825 38.8426034,33.2209003 C38.126598,35.7626067 37.4523382,38.4600761 35.8410835,40.5521548 C35.1426266,41.4590424 35.6576982,38.2480141 35.8410835,37.1181216 C36.9314181,30.4002395 40.1148142,23.8500993 39.6539493,17.0599319 C39.3551563,12.6576553 34.9267604,25.1765612 35.3288159,29.5706104 C35.5151696,31.6072624 38.5282221,25.7049859 40.49597,26.2623435 C41.9917863,26.6860281 39.6953743,29.3861611 40.0343157,30.9034263 C40.1625994,31.4776859 40.8124075,29.2218743 41.2459665,29.6196899 L42.129398,16.2209788 C50.1611182,23.5905486 52.1576208,35.6014154 57.8777916,44.8803557 C59.4111599,47.3676998 56.1325402,39.2654248 54.7489717,36.6917432 C50.5561093,28.892279 46.7571708,20.7344072 41.1938195,13.8452228 C39.7562469,12.0650543 41.0870145,18.5133729 41.8195835,20.6810809 C43.1405913,24.5900084 45.2339265,28.2054347 47.2612762,31.7991277 C48.521828,34.0335899 45.6288024,26.8495293 44.1263213,24.7700191 C43.6011573,24.0431653 43.7776513,26.6340291 44.1263213,27.4601907 C45.9231855,31.7177978 47.7106383,36.079355 50.4652492,39.7898884 C54.459599,45.1703829 48.4433547,32.0642069 48.0925607,32.6687556 C47.537565,33.6252202 47.7201796,34.9449867 48.0925607,35.986225 C49.6656371,40.3848031 51.003875,45.0584792 53.8486691,48.7637734 C55.1283653,50.4305551 53.7021757,44.5169899 53.0971389,42.5045998 C52.3500478,40.0197287 51.8608573,37.062878 49.8410189,35.4340803 C48.6041641,34.4366806 49.6678702,38.6962174 50.2213852,40.1855921 C51.7758878,44.3683808 52.9907836,49.0025059 56.0802539,52.2223464 C57.7523674,53.9650201 56.3556009,47.0067957 54.9100139,45.0720726 C53.0543332,42.5884945 49.8324255,41.4610097 47.0373509,40.1196415 C44.6665584,38.9818881 39.4797635,40.3208998 39.5312505,37.6917386 C39.5870237,34.8437097 54.9558275,39.7814277 54.3701391,40.174856 C50.2911078,42.9148896 44.5881513,41.3644459 39.824194,42.5690167 C39.4132195,42.6729319 39.9604444,43.7515219 40.3824736,43.7116494 L47.175387,43.7116494 C48.0944422,43.624819 50.7195181,42.8781477 49.7980743,42.822083 C6.38217647,40.18047 61.2471365,42.399554 36.7122451,41.7162599" id="Path-5"></path>
                    <path d="M69.9452206,28.727056 C83.5977681,59.3756319 67.4065882,21.3968845 62.46366,20.9080737 C55.4615038,20.2156239 67.9824134,33.9200768 71.7366234,39.8711764 C72.4949345,41.0732363 72.1171342,36.9767701 71.7366234,35.6073924 C70.5798398,31.4443733 68.8717883,27.4482024 67.179896,23.472479 C66.35218,21.527456 65.6136083,19.4434813 64.1921797,17.8789466 C63.7184233,17.3574935 63.7789016,19.3196363 64.0111989,19.9847651 C65.3654747,23.8624151 66.4073398,28.0246787 68.8808083,31.3037312 C71.5162695,34.7975357 59.951736,-0.088060763 60.8885139,14.1550374 C61.2709676,19.969996 62.1519865,29.9316355 67.9759045,30.1365587 L70.8317196,34.3282572 C72.2209361,34.3771388 69.5669446,28.9538409 70.1553423,30.2132455 C71.709497,33.5397529 70.9286524,42.943136 73.7703563,40.6181054 C76.8152945,38.1267924 69.5546162,32.358904 71.623127,29.0123308 C73.544006,25.9046059 71.8274574,37.0125317 74.3884516,39.6181101 C75.7007534,40.9532575 77.6660959,35.6473059 79.1997791,36.7208842 C80.6237784,37.7176836 75.9015332,40.1160232 77.0111389,41.4539912 C78.4025727,43.1317886 76.6950776,45.0454296 74.9574674,45.9892463 C74.5858359,46.1911052 69.625442,36.1926495 75.9359905,42.9923276 C77.2570725,44.4158064 77.1189289,48.4424863 78.9973261,47.94936 C80.8546269,47.461772 78.3966341,44.0125137 78.9973261,42.1886503 C80.7345101,36.9140897 86.6578306,32.5214634 85.8899323,27.0215424 C85.2779438,22.638295 79.1153669,42.3617756 78.4114392,37.9923507 C76.5399052,26.375351 84.3392143,25.8984094 85.8899323,19.9847651 C88.8009618,8.8835893 87.2232263,20.0505356 85.2334936,32.5107809 C84.4535709,37.3948685 86.6719321,42.6613555 80.9359674,32.8098593 C78.3290576,28.332502 86.0067015,21.5875213 82.9574305,17.3988874 C80.6966955,14.2934268 73.2532332,25.7101271 76.8148208,27.1488424 L76.8148208,28.651903 C83.2944248,31.2693609 85.7932138,13.2155999 88.1506581,16.4602415 C91.4626255,21.0186301 84.091871,27.0151324 82.8485353,32.5107809 C82.5575436,33.7969886 84.7502474,30.5813336 85.2334936,29.3543537 C86.7576739,25.4844047 91.8955791,20.1763778 88.8009618,17.3973537 C85.8903115,14.7835354 80.8839234,32.3134093 80.3945589,33.8297932" id="Path-6"></path>
                    <path d="M102.578506,19.8543976 C102.578506,66.8838004 103.831837,15.9318853 95.2119752,2.0446638 C89.9064718,-6.50288633 96.1934853,22.2163306 98.173618,32.0798013 C98.3833976,33.1247594 100.664039,33.3778044 101.33618,32.550658 C103.359345,30.060923 103.582434,20.7886394 105.017145,23.658061 C107.523795,28.6713621 105.055799,46.0707464 105.296284,40.4708669 C105.629698,32.7070975 108.723779,10.1838843 105.296284,17.158091 C101.548966,24.7830695 105.409628,34.2093634 104.238007,42.6242312 C104.061417,43.8925467 100.192815,44.7531789 101.391395,45.2039739 C106.381199,47.0806782 112.100469,46.012469 117.218009,47.5061105 C124.405232,49.6038248 93.4812744,45.917911 100.291706,44.1671688 C105.823812,42.7450431 111.914451,43.2280966 117.417394,44.7591906 C120.041404,45.4892737 107.312273,45.0848894 109.486449,46.7254392 C112.290102,48.8409674 123.396027,45.7456265 120.02321,46.7254392 C103.634612,51.4863729 106.08813,46.5461954 103.728807,35.5138345 C103.420735,34.0732698 100.197011,31.8527682 101.650596,31.6135458 C139.940306,25.3120475 101.468743,40.100333 105.015611,34.3037174 C106.898199,31.2270201 115.46771,34.9225945 115.41587,31.3160011 C115.290924,22.6233625 81.8124174,43.7005237 118.379046,27.8789004 C121.130687,26.6883224 112.339234,28.3725257 109.506388,29.3543537 C108.831663,29.5882046 111.854502,30.863821 111.435827,30.285331 L104.785551,30.285331 C102.628027,27.3042459 104.29192,22.9144137 103.500281,19.3206577 C103.237421,18.1273703 100.460854,16.316642 101.670534,16.144292 C107.588881,15.3010716 125.333412,15.3949596 119.583028,17.0292572 C112.487557,19.0458377 104.831659,17.2448689 97.4558299,17.3421392 C1.01823042,18.6139312 127.62597,20.3504756 113.888269,15.3636207 C111.818008,14.6121053 105.131464,14.8834958 107.280938,15.3636207 C111.387634,16.2809275 120.753252,12.5854494 119.834561,16.6918355 C118.830517,21.1797317 110.488905,21.5515505 106.340758,19.5660553 C102.674769,17.8113433 114.477967,17.92409 117.931196,15.7807967 C119.48584,14.8158857 114.271703,15.7797742 112.441957,15.779263" id="Path-7"></path>
                    <path d="M153.52459,20.6933508 C144.355475,18.566484 139.45607,12.6205591 137.328345,21.7148184 C136.963802,23.2729388 136.401065,25.2112696 137.328345,26.5154098 C148.78751,42.631739 140.739146,25.8467241 152.71171,34.450956 C158.444323,38.5707694 145.990111,46.257042 141.451026,43.9156362 C140.102404,43.2199738 139.785185,41.0159072 138.323739,40.6073693 C122.56883,36.2031852 179.127886,63.7806991 145.469412,46.9110212 C126.006046,37.1559529 137.997179,47.1161396 139.32987,47.4309574 C143.813301,48.4900661 149.336898,47.4158833 153.08134,44.7101111 C154.125367,43.9556866 156.362916,41.4957331 155.078263,41.4018442 C153.338633,41.2747032 152.578437,44.0800557 150.898835,44.5506026 L156.2347,38.4908146 C152.702851,39.4802755 150.13862,42.6987084 147.707132,45.4447703 C145.692325,47.7202429 158.651483,39.5918568 154.386549,37.1319252 C151.048281,35.2064771 146.076223,37.3917468 143.013902,35.0521802 C138.276621,31.4329698 135.881585,25.4881967 132.616711,20.5001001 C132.373404,20.128375 132.189872,19.2905188 132.616711,19.1672842 C134.161138,18.7213845 149.985861,34.4827464 150.211721,36.1150587 C150.728672,39.8511051 126.464427,18.8022117 140.558392,16.329874 C158.269723,13.2229845 139.236608,19.902994 151.943309,23.4755465 C153.759464,23.9861677 151.748652,18.9586024 150.047612,18.142749 C146.972359,16.6677957 143.195532,17.1310169 139.8268,17.6642236 C137.785757,17.9872821 132.730414,21.8687827 134.378972,20.6227989 C141.362784,15.3444207 143.992843,11.6735925 152.036866,16.2792607 C153.383587,17.0503363 155.981238,19.6343083 154.538389,20.2056229 C150.534858,21.7908719 133.64733,8.98895014 136.81301,28.4126403 C137.019498,29.6795911 138.764944,30.0803218 139.740911,30.9141625" id="Path-8"></path>
                    <path d="M174.861914,28.0966908 C174.861914,61.9287368 175.059314,35.2049631 174.199341,26.2470061 C173.982477,23.9880325 172.127523,17.412296 172.545974,19.6427421 C173.844793,26.5657548 174.135397,33.8297919 176.841967,40.3328307 C178.887783,45.2482847 179.505456,14.8180183 178.598093,24.4847443 C176.621389,45.5438776 179.866482,38.2376129 178.283678,24.2531503 C177.837746,20.3132325 176.188198,8.79500393 175.472341,12.6949214 C173.855051,21.505755 170.408399,46.9584084 175.472341,39.5690305 L176.437061,42.1717793 C177.442351,40.7048443 177.219634,16.6026616 176.99534,23.6089815 C174.897351,89.1444667 173.526615,-28.1300483 174.688602,46.9969104" id="Path-9"></path>
                    <path d="M164.188651,15.7148461 C171.471848,16.0773189 178.79545,15.9547416 186.038243,16.8022644 C190.195442,17.2887232 176.770935,14.2140399 173.481553,16.8022644 C170.342548,19.2721658 187.808078,14.0330375 185.455424,17.2608513 C182.897893,20.7697526 176.756421,17.5504974 172.463152,18.1994972 C169.205427,18.6919572 185.519913,19.0546937 181.200842,17.2071705 C160.705756,8.44020548 184.391844,31.1794627 185.662478,16.4587077 C186.010708,12.4243316 169.690907,16.0795102 173.59965,15.0215978 C179.189408,13.5087141 195.06977,10.9295693 190.97227,15.0215978 C185.679564,20.3072351 176.328165,18.0798659 169.006113,19.6089999" id="Path-10"></path>
                    <path d="M197.697699,18.1764912 C197.697699,52.2753715 198.441962,24.865976 194.699246,12.8897058 C193.448646,8.88792518 194.307411,21.3242267 194.966116,25.4648011 C196.37263,34.3060476 196.116607,44.0780545 200.867929,51.6656005 C205.481369,59.0329566 199.536807,23.7223024 198.252911,25.1304468 C194.908083,28.7989676 196.800934,44.8352008 196.303533,39.8957161 C196.161248,38.4827348 199.355109,-3.3749663 196.631753,32.8236629" id="Path-11"></path>
                    <path d="M221.815685,29.9908539 C220.855056,32.5501468 218.173338,35.0429963 218.933797,37.6687325 C219.47625,39.5417309 230.459946,20.4071195 226.559529,24.2516165 C221.372066,29.3647074 215.046212,34.7728729 213.723698,41.935584 C212.825417,46.8006599 225.666943,27.4486818 225.062603,32.3589411 C224.189414,39.4535988 217.625261,55.1312983 212.742108,49.9110073 C207.282817,44.0748026 221.059781,35.0504673 220.153116,27.1104991 C219.475408,21.1755777 206.90888,46.2389746 211.958369,43.0475421 L211.381685,44.976981 C213.465799,43.6597567 224.094632,34.0971156 221.436853,30.6104829 C219.01232,27.4298372 207.464776,59.7080147 223.090219,28.2623342 C223.986158,26.4592887 222.096155,22.5943035 224.088681,22.3053065 C226.248184,21.992091 226.993473,25.6169047 228.007375,27.5491473 C230.266451,31.8543811 229.554547,38.6395703 233.85244,40.9125826 C238.700752,43.4766935 218.059372,4.15335521 221.568754,13.2516673 C226.00214,24.7455223 231.946007,35.59819 237.134633,46.7714513" id="Path-12"></path>
                    <path d="M220.050356,39.7024655 C257.354021,39.7024655 239.940154,38.7502121 223.289605,42.1472395 C221.297923,42.5535804 231.415777,42.284946 229.387736,42.1472395 C214.302476,41.1229317 198.288471,41.3711695 228.696022,41.3711695 C230.905112,41.3711695 219.964316,42.0430532 222.068752,41.3711695" id="Path-13"></path>
                </g>
                <path d="M216.840253,42.2269937 C228.065387,27.0495366 213.011803,50.4437136 212.880148,50.5766484 C211.484488,51.9858859 215.700316,47.2745375 215.616332,45.2929305 C215.445939,41.2724537 186.883194,84.5023484 220.916921,35.8681274" id="Path-14" stroke="#000000"></path>
            </g>
        </g>
    </g>
</svg>