<?xml version="1.0" encoding="UTF-8" standalone="no"?>
<svg width="29px" height="105px" viewBox="0 0 29 105" version="1.1" xmlns="http://www.w3.org/2000/svg" xmlns:xlink="http://www.w3.org/1999/xlink">
    <!-- Generator: Sketch 3.8.3 (29802) - http://www.bohemiancoding.com/sketch -->
    <title>LOGO</title>
    <desc>Created with Sketch.</desc>
    <defs></defs>
    <g id="Page-1" stroke="none" stroke-width="1" fill="none" fill-rule="evenodd">
        <g id="Splash-screen" transform="translate(-166.000000, -268.000000)" fill="#525252">
            <g id="LOGO" transform="translate(166.000000, 268.000000)">
                <path d="M28.8500127,9.85344021 C28.8500127,6.21574523 25.8567325,3.2662825 22.1661592,3.2662825 C21.2640191,3.2662825 20.4062102,3.44461872 19.6206242,3.76471404 C18.5476242,1.54169844 16.2523758,0 13.5886242,0 C10.0079554,0 7.0939172,2.77512998 6.92010191,6.25941941 C3.04721656,6.57387348 0,9.7642721 0,13.6605546 C0,14.6424957 0.195796178,15.5807626 0.546012739,16.4385962 L22.301,16.4385962 L22.301,16.432773 C25.9295096,16.3614385 28.8500127,13.4454593 28.8500127,9.85344021" id="Fill-1-Copy-3"></path>
                <path d="M9,31.3999047 C9,35.762227 10.6345287,37.7998094 14.6309873,37.7998094 C18.5831146,37.7998094 20.2549554,35.9844194 20.2549554,31.3999047 C20.2549554,26.9027383 18.3902739,25 14.6309873,25 C10.3737134,25 9,26.9773484 9,31.3999047" id="Fill-2-Copy"></path>
                <path d="M14.0352611,42 C3.42163057,42 0,46.8112565 0,57.5578336 C0,63.5086222 1.28375796,67.6749567 4.16694904,70.1909532 L4.16694904,51.6314298 C4.16694904,51.1255373 4.53009554,50.7124523 4.98042675,50.7124523 C5.42706369,50.7124523 5.79131847,51.1255373 5.79131847,51.6314298 L5.79131847,71.3144714 C5.82271975,71.3348527 7.13898726,101.878024 7.13898726,101.878024 C7.18738217,102.667071 7.82981529,103.568215 8.56866879,103.878847 L11.2863567,104.74305 C12.0724968,104.905009 12.7149299,104.394021 12.7149299,103.598423 L12.7149299,75.3514211 C12.7149299,74.557643 13.3065669,73.9114471 14.0280573,73.9114471 C14.7499172,73.9114471 15.3389682,74.557643 15.3389682,75.3514211 L15.3389682,103.598423 C15.3389682,104.394021 15.9832484,104.905009 16.7693885,104.74305 L19.4870764,103.878847 C20.2227898,103.568215 20.8676242,102.667071 20.916758,101.878024 C20.916758,101.878024 22.2311783,71.4385789 22.2636879,71.4211092 L22.2636879,51.7393414 C22.2636879,51.2334489 22.6270191,50.819636 23.0753185,50.819636 C23.5238025,50.819636 23.886949,51.2334489 23.886949,51.7393414 L23.886949,70.3288908 C26.7512994,67.9022444 28.0550064,63.7837695 28.0550064,57.5578336 C28.0550064,46.6270971 23.4089108,42 14.0352611,42" id="Fill-4-Copy"></path>
            </g>
        </g>
    </g>
</svg>