<?xml version="1.0" encoding="UTF-8"?>
<svg width="285px" height="93px" viewBox="0 0 285 93" version="1.1" xmlns="http://www.w3.org/2000/svg" xmlns:xlink="http://www.w3.org/1999/xlink">
    <!-- Generator: Sketch 47.1 (45422) - http://www.bohemiancoding.com/sketch -->
    <title>Group 4</title>
    <desc>Created with Sketch.</desc>
    <defs></defs>
    <g id="pruebas" stroke="none" stroke-width="1" fill="none" fill-rule="evenodd">
        <g id="LOGO2" transform="translate(-13.000000, -13.000000)">
            <g id="Group-4" transform="translate(15.000000, 15.000000)">
                <g id="Logo" transform="translate(85.000000, 16.000000)" font-size="48" font-family="Montserrat-Regular, Montserrat" letter-spacing="4" fill="#000000" font-weight="normal">
                    <text id="COGAM">
                        <tspan x="0" y="46">COGA</tspan>
                        <tspan x="157.6" y="46">M</tspan>
                    </text>
                </g>
                <path d="M43.861757,87.8174853 L0.314817721,0.723606798 L0.314817721,0.723606798 C0.191323097,0.476617549 0.29143527,0.176281029 0.538424519,0.0527864045 C0.607852236,0.0180725459 0.684408769,1.56684037e-14 0.762031316,1.56541446e-14 L87.8559098,1.3686694e-16 L87.8559098,-1.55431223e-15 C88.1320522,-9.45347711e-15 88.3559098,0.223857625 88.3559098,0.5 C88.3559098,0.577622548 88.3378373,0.654179081 88.3031234,0.723606798 L44.7561842,87.8174853 L44.7561842,87.8174853 C44.6326895,88.0644745 44.332353,88.1645867 44.0853638,88.0410921 C43.9886001,87.9927102 43.9101388,87.914249 43.861757,87.8174853 Z" id="Triangle-2" stroke="#000000" stroke-width="4" fill="#FF0073"></path>
            </g>
        </g>
    </g>
</svg>